<svg xmlns="http://www.w3.org/2000/svg" viewBox="0 0 479.51 27.13"><defs><style>.cls-1{fill:#00263a;}</style></defs><title>Asset 2</title><g id="Layer_2" data-name="Layer 2"><g id="logo"><path class="cls-1" d="M5.23,10.06h-.1V26.34H0V.79H5.13l9,12.82,9-12.82h5.13V26.34H23.08V10.06H23L14.11,22.88Z"/><path class="cls-1" d="M37.18,13.56C37.18,6.41,42.81,0,52.86,0S68.55,6.36,68.55,13.56,62.88,27.12,52.86,27.12,37.18,20.72,37.18,13.56Zm26.24,0c0-4.44-4.19-8.43-10.56-8.43s-10.55,4-10.55,8.43S46.5,22,52.86,22,63.42,18,63.42,13.56Z"/><path class="cls-1" d="M82.84.79V21.2h14.7v5.14H77.71V.79Z"/><path class="cls-1" d="M111.15.79V21.2h14.7v5.14H106V.79Z"/><path class="cls-1" d="M134.82.79l6.8,10.06,7-10.06h6.12L144.24,16V26.34h-5.13V16L128.41.79Z"/><path class="cls-1" d="M186.8,10.06h-.1V26.34h-5.13V.79h5.13l9,12.82,9-12.82h5.13V26.34h-5.13V10.06h-.09l-8.88,12.83Z"/><path class="cls-1" d="M221,13.56C221,6.41,226.59,0,236.65,0s15.68,6.36,15.68,13.56-5.67,13.57-15.68,13.57S221,20.72,221,13.56Zm26.24,0c0-4.43-4.19-8.43-10.56-8.43s-10.55,4-10.55,8.43S230.29,22,236.65,22,247.21,18,247.21,13.56Z"/><path class="cls-1" d="M262,13.56C262,6.41,267.66,0,277.72,0s15.69,6.36,15.69,13.56-5.67,13.57-15.69,13.57S262,20.72,262,13.56Zm26.24,0c0-4.43-4.2-8.43-10.56-8.43s-10.55,4-10.55,8.43S271.36,22,277.72,22,288.28,18,288.28,13.56Z"/><path class="cls-1" d="M320.8.79c4.74,0,9.23,1.78,9.23,7.55,0,4.88-3.31,6.65-5.73,7.54l6.47,10.46H324.3l-6.46-10.41h-8.18V26.34h-5.13V.79ZM309.66,5.92V10.8H320.8c1.53,0,4.09-.19,4.09-2.46s-2.31-2.42-4.09-2.42Z"/><path class="cls-1" d="M347.09.79v11.1l11-11.1h6.56l-9,9.07,10.4,16.48h-6.16l-8-12.63-4.83,4.74v7.89H342V.79Z"/><path class="cls-1" d="M385,.79h6.81L404.3,26.34h-5.82L395.91,21H381l-2.57,5.38h-5.82Zm-1.48,15h9.87L388.42,5.77Z"/><path class="cls-1" d="M418.89,10.06h-.1V26.34h-5.13V.79h5.13l9,12.82,9-12.82h5.13V26.34h-5.13V10.06h-.1l-8.87,12.82Z"/><path class="cls-1" d="M470.29.79c5,0,9.22,2.17,9.22,8.09,0,5.72-3.94,8.23-9.22,8.23H460.08v9.23H455V.79ZM460.08,12h10.21c2,0,4.09-.24,4.09-3.1s-2.26-3-4.09-3H460.08Z"/></g></g></svg>